<?xml version="1.0" encoding="UTF-8"?>
<!-- Generator: visioncortex VTracer 0.6.3 -->
<svg version="1.1" xmlns="http://www.w3.org/2000/svg" width="1280" height="1280">
<path d="M0 0 C422.4 0 844.8 0 1280 0 C1280 422.4 1280 844.8 1280 1280 C857.6 1280 435.2 1280 0 1280 C0 857.6 0 435.2 0 0 Z " fill="#FCFCFC" transform="translate(0,0)"/>
<path d="M0 0 C6.92 3.2 10.57 12.86 13.21 19.6 C17.19 31.88 19.49 44.64 19.51 57.54 C19.52 58.33 19.52 59.12 19.52 59.94 C19.53 61.6 19.53 63.27 19.53 64.93 C19.53 67.42 19.55 69.9 19.57 72.38 C19.62 87.28 18.35 101.93 15.28 116.52 C15.08 117.5 14.87 118.49 14.66 119.5 C11.54 133.58 7.26 148.03 1 161.05 C-0.21 163.71 -0.67 164.85 -0.53 167.82 C-0.24 168.57 0.05 169.31 0.34 170.08 C0.64 170.9 0.94 171.72 1.25 172.56 C1.59 173.46 1.93 174.35 2.28 175.27 C4.08 180.57 4.99 185.67 5.59 191.21 C5.67 191.93 5.75 192.66 5.84 193.41 C6.73 202.6 6.35 211.54 5.34 220.71 C5.25 221.62 5.15 222.52 5.05 223.46 C4.82 225.67 4.59 227.88 4.34 230.08 C3.68 230.08 3.02 230.08 2.34 230.08 C2.34 229.42 2.34 228.76 2.34 228.08 C1.35 227.75 0.36 227.42 -0.66 227.08 C-1.08 226.31 -1.5 225.55 -1.93 224.75 C-4.19 221.26 -6.59 220.18 -10.28 218.33 C-16.63 215.11 -16.63 215.11 -17.66 214.08 C-18.91 214 -20.17 213.92 -21.47 213.83 C-24.94 213.45 -25.51 213.23 -28.16 210.64 C-29.66 208.08 -29.66 208.08 -29.66 206.08 C-30.65 205.75 -31.64 205.42 -32.66 205.08 C-32.16 204.65 -31.67 204.22 -31.16 203.77 C-29.32 202.08 -29.32 202.08 -29.66 199.08 C-32.12 197.44 -32.12 197.44 -34.66 196.08 C-34.66 195.75 -34.66 195.42 -34.66 195.08 C-31.69 194.75 -28.72 194.42 -25.66 194.08 C-25.99 193.09 -26.32 192.1 -26.66 191.08 C-32.74 188.37 -39.26 189.09 -45.66 190.08 C-44.29 186.92 -43.67 186.09 -40.66 184.08 C-40.66 183.09 -40.66 182.1 -40.66 181.08 C-43.1 179.36 -43.1 179.36 -45.66 178.08 C-45.33 177.09 -45 176.1 -44.66 175.08 C-41.92 173.71 -39.69 173.96 -36.66 174.08 C-36 174.41 -35.34 174.74 -34.66 175.08 C-34.66 174.42 -34.66 173.76 -34.66 173.08 C-38.93 170.71 -43.6 169.44 -48.26 168.03 C-51.74 166.92 -54.38 166.03 -56.66 163.08 C-50.18 159.85 -40.6 162.8 -33.84 164.08 C-31.82 164.46 -29.79 164.84 -27.76 165.21 C-26.43 165.46 -26.43 165.46 -25.08 165.71 C-22.41 166.18 -22.41 166.18 -18.66 166.08 C-28.78 154.73 -45.53 153.69 -59.66 152.08 C-56.5 148.93 -53.42 149.11 -49.06 148.97 C-47.69 148.97 -46.32 148.97 -44.95 148.98 C-43.86 148.99 -43.86 148.99 -42.75 148.99 C-40.45 148.99 -38.15 149.01 -35.84 149.02 C-34.28 149.02 -32.71 149.03 -31.14 149.03 C-27.31 149.04 -23.49 149.06 -19.66 149.08 C-19.66 148.09 -19.66 147.1 -19.66 146.08 C-20.61 146.09 -21.56 146.11 -22.54 146.12 C-24.42 146.13 -24.42 146.13 -26.34 146.14 C-27.59 146.16 -28.83 146.17 -30.11 146.18 C-33.15 146.1 -35.7 145.76 -38.66 145.08 C-43.18 144.24 -47.63 143.81 -52.22 143.52 C-53.5 143.44 -54.78 143.35 -56.1 143.27 C-58.96 143.12 -61.79 143.04 -64.66 143.08 C-63.67 142.75 -62.68 142.42 -61.66 142.08 C-61.66 141.42 -61.66 140.76 -61.66 140.08 C-52.7 137.58 -43.87 136.15 -34.66 135.08 C-34.66 134.42 -34.66 133.76 -34.66 133.08 C-39.94 133.08 -45.22 133.08 -50.66 133.08 C-50.66 132.09 -50.66 131.1 -50.66 130.08 C-48.24 129.41 -45.82 128.74 -43.41 128.08 C-42.72 127.89 -42.04 127.7 -41.34 127.5 C-37.95 126.58 -35.2 126.08 -31.66 126.08 C-31.66 125.42 -31.66 124.76 -31.66 124.08 C-40.12 123.82 -48.02 124.54 -56.34 126.02 C-58.47 126.38 -60.6 126.75 -62.73 127.11 C-64.23 127.36 -64.23 127.36 -65.76 127.62 C-69.72 128.25 -73.67 128.69 -77.66 129.08 C-77.66 128.09 -77.66 127.1 -77.66 126.08 C-75.01 124.62 -73.76 124.08 -70.66 124.08 C-70.16 122.6 -70.16 122.6 -69.66 121.08 C-68.4 121.12 -67.14 121.16 -65.84 121.21 C-60.38 121.21 -54.92 120.6 -49.66 119.08 C-49.33 118.42 -49 117.76 -48.66 117.08 C-47.73 117.14 -46.8 117.21 -45.84 117.27 C-40.57 117.3 -35.66 115.6 -30.66 114.08 C-30.66 113.42 -30.66 112.76 -30.66 112.08 C-55.22 108.42 -77.71 111.44 -99.66 123.08 C-98.66 120.08 -98.66 120.08 -96.66 118.08 C-95.93 117.29 -95.21 116.5 -94.46 115.68 C-91.45 112.89 -88.42 111.15 -84.72 109.46 C-83.53 108.89 -82.35 108.32 -81.13 107.73 C-70.29 103.34 -58.38 102.45 -46.84 101.46 C-45.49 101.34 -44.14 101.21 -42.78 101.09 C-40.22 100.86 -37.65 100.63 -35.08 100.4 C-30.93 100.02 -26.79 99.56 -22.66 99.08 C-22.99 98.42 -23.32 97.76 -23.66 97.08 C-26.21 96.61 -26.21 96.61 -29.32 96.45 C-30.52 96.37 -31.71 96.28 -32.94 96.19 C-34.23 96.12 -35.52 96.04 -36.84 95.96 C-38.15 95.87 -39.46 95.79 -40.81 95.7 C-48.82 95.21 -56.82 94.88 -64.84 94.83 C-66.12 94.82 -66.12 94.82 -67.42 94.8 C-81.04 94.87 -92.66 99.34 -104.09 106.52 C-104.96 107.06 -104.96 107.06 -105.85 107.61 C-109.97 110.3 -112.69 113.23 -115.66 117.08 C-116.65 115.76 -117.64 114.44 -118.66 113.08 C-117.67 112.59 -117.67 112.59 -116.66 112.08 C-116.72 111.03 -116.78 109.98 -116.84 108.89 C-116.65 104.92 -116.09 103.17 -113.66 100.08 C-113 100.08 -112.34 100.08 -111.66 100.08 C-111.56 99.52 -111.47 98.95 -111.37 98.37 C-106.98 84.3 -85.23 66.16 -72.66 59.08 C-65.45 54.94 -59.42 50.25 -53.42 44.56 C-49.54 40.87 -45.51 37.49 -41.29 34.18 C-31.84 26.66 -22.91 18.57 -14.16 10.25 C-12.34 8.51 -10.5 6.8 -8.66 5.08 C-8.12 4.56 -7.58 4.03 -7.03 3.5 C-4.66 1.31 -3.29 0.1 0 0 Z " fill="#1E1D1C" transform="translate(971.65625,354.91796875)"/>
<path d="M0 0 C1.08 0.08 1.08 0.08 2.18 0.15 C3.63 0.26 5.08 0.36 6.53 0.47 C8.3 0.61 10.08 0.73 11.86 0.85 C13.26 0.95 13.26 0.95 14.69 1.06 C15.9 1.15 15.9 1.15 17.13 1.25 C20.11 1.71 22.73 2.61 25.56 3.62 C26.18 3.84 26.79 4.06 27.43 4.29 C29.46 5.01 31.48 5.75 33.5 6.5 C34.18 6.74 34.85 6.99 35.55 7.24 C39.47 8.69 43.03 10.36 46.63 12.51 C48.89 13.82 51.21 15 53.54 16.18 C66.07 22.56 78.1 29.44 89.97 36.98 C96.92 41.39 103.94 45.7 110.96 50.02 C112.7 51.09 114.45 52.18 116.19 53.26 C125.68 59.2 134.82 64.45 145.33 68.32 C150.07 70.23 156.18 72.85 158.56 77.62 C160.83 92.1 152.9 108.15 145.09 119.83 C135.94 132.33 124.18 141.87 111.56 150.62 C110.13 151.64 108.69 152.65 107.25 153.66 C106.17 154.43 106.17 154.43 105.06 155.21 C104.34 155.72 103.62 156.23 102.88 156.75 C102.16 157.25 101.45 157.75 100.71 158.27 C85.82 167.78 85.82 167.78 75.56 181.62 C74.9 181.62 74.24 181.62 73.56 181.62 C73.56 182.62 73.56 183.61 73.56 184.62 C72.59 185.66 71.59 186.65 70.56 187.62 C68.53 190.47 66.56 193.34 64.6 196.23 C62.52 198.68 61.69 199.33 58.56 199.62 C55.55 195.43 55.1 192.18 54.88 187.06 C54.84 186.35 54.81 185.64 54.77 184.91 C54.55 179.93 54.54 174.96 54.59 169.98 C54.55 165.52 54.35 161.08 54.12 156.62 C54.09 155.8 54.05 154.97 54.01 154.12 C53.96 153.34 53.92 152.56 53.88 151.75 C53.82 150.7 53.82 150.7 53.77 149.63 C53.61 147.63 53.61 147.63 53.07 145.74 C52.24 142.29 52.16 138.76 51.95 135.22 C51.84 133.52 51.72 131.82 51.61 130.11 C51.55 129.23 51.49 128.34 51.43 127.43 C50.46 112.91 49.25 98.75 45.97 84.55 C45.38 81.78 45.08 78.99 44.75 76.19 C43.82 70.16 41.06 65.21 38.12 59.95 C36.47 56.42 36.03 53.46 35.56 49.62 C33.77 46.57 33.77 46.57 31.56 43.62 C27.77 37.55 27.77 37.55 27.06 34.38 C26.71 32.4 26.71 32.4 24.55 31.34 C22.56 29.62 22.56 29.62 22.17 27.14 C22.24 25.8 22.24 25.8 22.31 24.44 C22.35 23.54 22.38 22.64 22.42 21.71 C22.49 20.68 22.49 20.68 22.56 19.62 C20.09 20.78 18.51 21.67 16.56 23.62 C14.89 20.66 14.24 18.25 13.94 14.88 C13.86 14.08 13.79 13.28 13.71 12.45 C13.66 11.85 13.61 11.25 13.56 10.62 C12.57 11.29 11.58 11.94 10.56 12.62 C6.59 12.3 3.89 10.81 0.56 8.69 C-2.7 6.61 -5.81 4.97 -9.44 3.62 C-9.44 2.63 -9.44 1.64 -9.44 0.62 C-6.39 -0.9 -3.32 -0.25 0 0 Z " fill="#1E1D1C" transform="translate(645.4375,432.375)"/>
<path d="M0 0 C2.44 1.56 4.7 3.23 7 5 C9.75 3.71 12.04 2.23 14.46 0.41 C19.91 -3.02 25.36 -2.7 31.62 -2.56 C32.73 -2.57 33.84 -2.58 34.98 -2.6 C41.2 -2.54 45.36 -2.35 50 2 C51.38 5.25 51.38 5.25 52 8 C51 9.56 51 9.56 49 11 C42.28 11 38.44 8.68 33 5 C28.35 2.38 24.07 2.77 19 4 C14.56 6.16 14.56 6.16 12.15 10.24 C11.94 14.04 13.24 16.06 15.06 19.38 C15.73 20.64 16.39 21.91 17.05 23.18 C17.38 23.82 17.71 24.47 18.06 25.13 C27.29 43.45 33.25 64.67 38.37 84.47 C39.61 89.09 41.24 92.97 43.98 96.88 C46.84 102.83 46.18 110.53 46.19 117 C46.2 117.85 46.21 118.7 46.22 119.58 C46.25 129.6 43.88 139.31 37.21 147.09 C32.65 151.4 28.07 153.52 22 155 C22.02 155.88 22.05 156.76 22.07 157.67 C22.09 158.83 22.11 159.99 22.12 161.19 C22.15 162.34 22.17 163.48 22.2 164.67 C22 167.96 21.31 170.02 20 173 C18.46 181.43 21.93 189.48 26.61 196.37 C32.36 203.35 40.03 208.34 49 210 C61.31 210.63 72.06 205.05 81 197 C85.71 192.74 89.62 188.95 92 183 C91.34 182.4 90.68 181.8 90 181.19 C79.23 170.33 72.83 157.91 72.81 142.62 C72.8 141.9 72.79 141.17 72.78 140.41 C72.75 131 75.68 124.85 82 118 C87.12 113.24 92.57 110.93 99.59 111.04 C103.79 111.37 107.4 111.67 111 114 C112.67 116.06 112.67 116.06 114.19 118.44 C114.7 119.22 115.21 120 115.73 120.81 C119.78 127.81 119.14 138.53 117.52 146.3 C114.55 157.03 109.47 167.41 103.23 176.61 C101.83 178.87 101.83 178.87 102.01 181.17 C103.86 184.59 107.38 185.09 110.9 186.23 C120.11 188.51 127.43 186.71 136 183 C136.07 180.09 136.07 180.09 135.68 177.62 C134.66 169.95 135.14 164.34 139.45 157.8 C144.41 151.55 149.89 149.22 157.38 147 C163.62 147 169.32 148.76 174.16 152.8 C180.08 159.25 182.64 165.52 182.34 174.29 C181.41 181.72 177.52 185.92 171.9 190.55 C165.72 195.25 159.46 194.9 152 194 C149.03 192.7 146.65 191.25 144.05 189.31 C141.84 187.64 141.84 187.64 138 188 C136.38 188.62 134.78 189.3 133.19 190 C122.17 194.12 111.52 192.76 101 188 C99.34 187.33 97.67 186.66 96 186 C95.76 186.56 95.51 187.12 95.26 187.7 C88.84 199.44 76.19 209.03 63.91 213.82 C54.34 216.62 44.81 215.51 36 211 C24.16 203.66 18.7 196.73 15.38 183.44 C15.1 182.23 15.1 182.23 14.82 181 C13.71 176.19 12.21 172.16 9.89 167.8 C8.71 165.42 8.18 163.11 7.75 160.5 C7.6 159.64 7.45 158.79 7.3 157.91 C7.15 156.96 7.15 156.96 7 156 C6.12 155.89 5.25 155.78 4.35 155.66 C0.95 154.99 -1.51 154 -4.56 152.38 C-5.47 151.91 -6.38 151.44 -7.32 150.96 C-13.53 146.42 -15.85 140.74 -17.31 133.38 C-17.48 132.59 -17.64 131.8 -17.81 130.99 C-19.77 120.91 -19.91 110.93 -17 101 C-16.67 100.67 -16.34 100.34 -16 100 C-15.73 98.6 -15.52 97.2 -15.34 95.79 C-15.22 94.88 -15.1 93.98 -14.97 93.05 C-14.84 92.07 -14.71 91.08 -14.58 90.06 C-14.3 87.96 -14.01 85.86 -13.73 83.76 C-13.58 82.65 -13.43 81.55 -13.28 80.41 C-6.64 31.63 -6.64 31.63 2.09 14.57 C3.26 12.07 3.26 12.07 2.31 9.78 C-0.19 6.38 -3.02 4.33 -7 3 C-13.88 2.41 -20.89 2.48 -27 6 C-29.07 7.97 -30.84 10 -32.59 12.26 C-34 14 -34 14 -36 15 C-43.47 15.36 -43.47 15.36 -47 13 C-46.8 9.5 -46.05 8.06 -43.75 5.38 C-39.75 2.29 -35.1 1.66 -30.24 0.69 C-27.45 0.1 -24.97 -0.67 -22.31 -1.69 C-14.7 -4.32 -7.11 -3.76 0 0 Z " fill="#1E1D1C" transform="translate(298,415)"/>
<path d="M0 0 C7.92 11.13 2.98 26.04 1 38.62 C0.57 41.38 0.14 44.14 -0.28 46.9 C-0.54 48.6 -0.81 50.31 -1.09 52.01 C-1.91 57.4 -2.11 62.55 -2 68 C-1.34 68 -0.68 68 0 68 C0.1 67.34 0.19 66.68 0.29 66 C1.2 62.15 2.75 58.66 4.35 55.06 C4.69 54.3 5.03 53.53 5.37 52.74 C6.09 51.13 6.81 49.51 7.53 47.9 C8.61 45.47 9.68 43.04 10.75 40.61 C25.66 6.89 25.66 6.89 38 2 C42.25 1.37 45.76 1.56 49.81 3 C54.12 6.93 55.7 10.53 56.39 16.21 C56.72 27.65 55 38.94 53.34 50.22 C53.15 51.51 52.97 52.8 52.78 54.13 C52.6 55.29 52.43 56.44 52.25 57.63 C51.98 61.25 52.36 64.43 53 68 C53.66 68 54.32 68 55 68 C55.27 67.28 55.54 66.56 55.81 65.81 C57 63 57 63 58.36 60.75 C60.21 57.65 61.84 54.48 63.44 51.25 C63.77 50.58 64.11 49.91 64.45 49.22 C68.29 41.48 72 33.68 75.7 25.87 C84.07 8.3 84.07 8.3 88 5 C90.94 4.44 90.94 4.44 94 5 C97.22 8.22 98.29 11.12 98.56 15.56 C98.29 22.21 95.63 27.98 93 34 C92.68 34.79 92.36 35.59 92.02 36.41 C89.75 41.87 86.82 46.88 83.79 51.95 C82.12 54.8 80.58 57.69 79.06 60.62 C74.66 68.75 67.54 79.73 59 84 C51.95 84.7 45.43 85.04 39.59 80.59 C35.17 76.16 33.77 71.77 33.56 65.56 C33.79 57.67 34.89 49.84 35.93 42.02 C36.73 35.95 37.15 30.13 37 24 C33.91 31.31 30.96 38.65 28.21 46.09 C27.03 48.93 25.63 51.4 24 54 C23.55 54.91 23.09 55.82 22.62 56.75 C18.76 64.48 14.59 71.38 9 78 C8.44 78.69 7.89 79.38 7.31 80.09 C4.33 83.46 2.01 85.42 -2.5 86.19 C-7.44 86.36 -10.12 85.03 -14 82 C-17.05 77.08 -17.87 72.24 -18.69 66.62 C-18.82 65.79 -18.95 64.96 -19.08 64.11 C-19.4 62.07 -19.7 60.04 -20 58 C-24.31 61.13 -28.35 64.3 -32.19 68 C-40.35 75.28 -49.21 78.95 -60.18 78.4 C-65.09 77.71 -68.94 75.91 -72 72 C-72.85 69.25 -73.56 66.61 -74.19 63.81 C-74.45 62.69 -74.45 62.69 -74.72 61.54 C-75.16 59.7 -75.58 57.85 -76 56 C-76.66 56 -77.32 56 -78 56 C-79.97 58.15 -81.83 60.32 -83.69 62.56 C-84.78 63.86 -85.88 65.15 -86.98 66.45 C-87.5 67.07 -88.03 67.69 -88.57 68.33 C-95.19 76.08 -103.55 84.03 -114.08 85.24 C-119.93 85.44 -124.15 84.33 -129 81 C-133.27 76.6 -133.29 71.52 -133.22 65.65 C-132.87 61.46 -131.63 57.86 -130 54 C-129.72 53.33 -129.44 52.66 -129.16 51.98 C-126.58 46.36 -122.92 41.74 -119 37 C-118.5 36.38 -118.01 35.76 -117.5 35.12 C-106.56 21.8 -87.48 7.12 -70 4.73 C-66.22 4.53 -64.61 4.46 -61.69 7.06 C-55.43 17.95 -56.72 27.52 -58.28 39.61 C-59.08 46.06 -59.47 52.51 -59 59 C-57.9 60.3 -57.9 60.3 -55.19 60.38 C-44.13 60.15 -31.57 51.54 -23.25 44.75 C-21 43 -21 43 -19 43 C-18.94 42.38 -18.87 41.75 -18.8 41.11 C-15.52 10.52 -15.52 10.52 -7 1 C-4.54 -0.23 -2.72 -0.07 0 0 Z " fill="#1E1D1C" transform="translate(833,847)"/>
<path d="M0 0 C3.26 2.8 4.94 5.9 6.78 9.79 C7.35 10.97 7.93 12.16 8.52 13.38 C13.24 24.19 14.46 38.34 11.05 49.85 C7.94 57.5 3.45 63.95 -3.97 67.85 C-15.75 71.81 -32.91 71.23 -44.25 65.75 C-44.82 65.45 -45.38 65.16 -45.97 64.85 C-46.96 64.85 -47.95 64.85 -48.97 64.85 C-51.51 72.71 -52.77 80.59 -53.7 88.77 C-54.53 95.16 -56.17 99.63 -61.41 103.79 C-64.54 105.09 -65.82 105.06 -68.97 103.85 C-71.28 102.48 -71.28 102.48 -72.97 99.85 C-73.76 92.12 -72.48 84.5 -71.09 76.91 C-70.92 75.92 -70.75 74.93 -70.57 73.9 C-69.12 65.63 -69.12 65.63 -68.33 61.53 C-68.13 60.45 -67.93 59.38 -67.72 58.28 C-67.54 57.31 -67.35 56.33 -67.15 55.33 C-66.71 52.64 -66.71 52.64 -68.78 49.98 C-69.86 48.92 -69.86 48.92 -70.97 47.85 C-72.14 44.11 -72.33 42.59 -70.59 39.04 C-68.97 36.85 -68.97 36.85 -67.97 35.85 C-66.3 35.81 -64.63 35.81 -62.97 35.85 C-62.89 35.19 -62.81 34.52 -62.73 33.84 C-62.35 30.8 -61.97 27.76 -61.59 24.73 C-61.4 23.16 -61.4 23.16 -61.21 21.55 C-59.36 6.94 -59.36 6.94 -54.97 2.85 C-51.53 1.79 -51.53 1.79 -47.97 1.85 C-45.15 4.52 -43.66 7.41 -41.97 10.85 C-41.54 10.33 -41.12 9.81 -40.68 9.28 C-30.7 -2.59 -14.46 -10.46 0 0 Z " fill="#1E1D1C" transform="translate(680.96875,823.1484375)"/>
<path d="M0 0 C2.56 1.94 2.56 1.94 4 5 C4.3 14.02 0.09 22.67 -3 31 C-5.71 38.4 -8 46.06 -8 54 C-7.67 53.39 -7.34 52.78 -7 52.16 C-5.34 49.1 -3.67 46.05 -2 43 C-1.67 42.39 -1.35 41.79 -1.01 41.17 C16.89 8.06 16.89 8.06 27 3 C35.25 2.53 35.25 2.53 39 5 C45.12 13.27 46 21.81 46.44 31.75 C46.51 44.7 46.51 44.7 51.74 55.81 C56.55 58.34 61.75 57.78 67 57 C72.02 55.17 76.5 52.9 81 50 C81.61 49.62 82.22 49.23 82.84 48.84 C88.83 44.51 89.93 39.08 91.56 32.12 C93.58 23.71 95.78 17.22 102 11 C104.88 10.62 104.88 10.62 108 11 C110.95 13.85 111.23 16.76 111.38 20.69 C111.01 33.54 107.87 46.52 105 59 C104.85 59.68 104.7 60.37 104.54 61.07 C104.06 63.24 103.57 65.4 103.06 67.56 C102.92 68.23 102.77 68.9 102.62 69.58 C101.58 73.92 100.14 76.83 97 80 C93.2 80.74 91.29 80.13 87.75 78.56 C84.04 75.11 83.61 71.9 83 67 C82.35 67.4 81.7 67.8 81.02 68.21 C80.15 68.74 79.28 69.27 78.38 69.81 C77.52 70.33 76.66 70.86 75.77 71.39 C74.86 71.92 73.94 72.45 73 73 C72.07 73.55 71.14 74.11 70.19 74.68 C66.19 76.34 62.91 76.46 58.62 76.38 C57.87 76.37 57.11 76.36 56.33 76.35 C48 76.12 41.2 73.79 35 68 C28.55 59.05 27.53 48.04 26.81 37.31 C26.73 36.22 26.65 35.12 26.56 33.99 C26.37 31.33 26.18 28.67 26 26 C23.65 28.26 22.3 30.15 20.94 33.12 C13.46 48.53 3.53 68.31 -11 78 C-15.33 78.59 -18.66 77.87 -22.39 75.51 C-26.29 71.86 -27.82 66.79 -28.16 61.56 C-28.29 55.15 -27.59 49.23 -26.12 43 C-25.91 42.08 -25.7 41.17 -25.48 40.22 C-23.48 32.1 -20.84 24.24 -18 16.38 C-17.59 15.21 -17.17 14.04 -16.74 12.84 C-16.33 11.74 -15.92 10.65 -15.5 9.52 C-15.14 8.55 -14.78 7.58 -14.41 6.58 C-10.94 0.21 -6.72 -0.96 0 0 Z " fill="#1E1D1C" transform="translate(473,849)"/>
<path d="M0 0 C9.76 6.97 12.51 21.52 14.46 32.63 C15.4 38.41 16.22 44.2 17 50 C17.89 49.94 18.78 49.88 19.7 49.82 C20.87 49.78 22.04 49.73 23.25 49.69 C24.41 49.63 25.57 49.57 26.77 49.51 C30 50 30 50 32.43 52.36 C34 55 34 55 33.94 57.62 C32.23 61.95 29.14 64.02 25 66 C22.67 66.05 20.33 66.06 18 66 C18.02 66.76 18.03 67.51 18.05 68.29 C18.11 71.78 18.15 75.26 18.19 78.75 C18.21 79.94 18.24 81.12 18.26 82.35 C18.34 91.35 18.02 100.64 12.75 108.25 C9.21 110.5 7.13 110.53 3 110 C0.62 109.19 0.62 109.19 -1 108 C-2.18 104.46 -2.23 101.18 -2.32 97.49 C-2.34 96.76 -2.36 96.03 -2.38 95.28 C-2.44 92.96 -2.5 90.64 -2.56 88.31 C-2.61 86.74 -2.65 85.16 -2.69 83.58 C-2.8 79.72 -2.9 75.86 -3 72 C-5.21 72.14 -7.41 72.29 -9.62 72.43 C-10.85 72.51 -12.07 72.59 -13.34 72.68 C-17.53 73.05 -21.58 73.74 -25.7 74.6 C-28 75 -28 75 -32 75 C-32.16 75.56 -32.32 76.12 -32.48 76.7 C-41.03 106.08 -41.03 106.08 -48 111 C-51.43 111.51 -53.55 111.16 -56.81 110 C-59.48 107.56 -59.64 105.75 -59.99 102.23 C-60.01 98.47 -58.98 95.18 -57.81 91.62 C-57.6 90.93 -57.39 90.24 -57.18 89.53 C-50.52 68.11 -39.77 47.61 -29 28 C-28.64 27.34 -28.28 26.67 -27.91 25.99 C-13.03 -1.35 -13.03 -1.35 0 0 Z " fill="#1E1D1C" transform="translate(395,820)"/>
<path d="M0 0 C0.66 0 1.32 0 2 0 C2.23 0.59 2.46 1.19 2.7 1.8 C3.19 3.04 3.19 3.04 3.69 4.31 C4 5.11 4.31 5.91 4.64 6.74 C5.41 8.59 6.21 10.44 7.07 12.25 C10.85 20.25 13.69 28.48 16.44 36.88 C16.68 37.6 16.92 38.33 17.16 39.07 C18.8 44.04 20.4 49.02 22 54 C22.35 55.08 22.7 56.17 23.06 57.29 C28.93 75.81 35.96 103.47 27 122 C23.71 127.4 18.93 130.02 13 132 C10.38 132.17 7.81 132.28 5.19 132.31 C4.49 132.34 3.79 132.37 3.07 132.4 C-3.45 132.48 -6.9 129.91 -11.69 125.56 C-18.52 116.74 -17.53 103.02 -17.44 92.38 C-17.43 91.61 -17.43 90.85 -17.43 90.07 C-17.35 75.45 -15.73 61.37 -13 47 C-12.8 45.9 -12.6 44.81 -12.4 43.68 C-6.87 13.09 -6.87 13.09 0 0 Z " fill="#FCFCFC" transform="translate(305,430)"/>
<path d="M0 0 C8.98 2.36 15.29 1.55 24.21 -0.82 C30.46 -2.31 35.5 -2.03 41.16 1.18 C45.24 4.01 48.48 6.83 49.57 11.82 C50.02 21.38 46.35 28.59 40.06 35.56 C33.03 43.04 23.77 52.01 13.46 54 C-0.01 54.31 -10.26 45.02 -19.62 36.25 C-25.41 30.27 -30.19 23.68 -30.5 15.12 C-30.4 11.16 -29.29 8.69 -26.94 5.5 C-24.56 3.73 -24.56 3.73 -21.94 2.25 C-21.07 1.75 -20.2 1.25 -19.31 0.73 C-12.73 -2.69 -6.9 -1.86 0 0 Z " fill="#1E1D1C" transform="translate(524.9375,687.5)"/>
<path d="M0 0 C9.4 4.93 18.41 13.33 22.88 23.12 C23.29 26.15 23.34 27.5 21.48 29.97 C20.87 30.52 20.26 31.06 19.62 31.62 C17.54 33.52 15.75 35.29 14.03 37.53 C7.48 45.43 -2.67 52.72 -12.82 54.63 C-25.86 55.71 -37.14 46.47 -47.12 39.12 C-49.11 37.77 -51.12 36.45 -53.12 35.12 C-51.17 29.4 -48.84 24.61 -45.44 19.62 C-44.99 18.97 -44.55 18.32 -44.1 17.65 C-33.62 2.54 -18.52 -8.62 0 0 Z " fill="#9F9F9F" transform="translate(622.125,574.875)"/>
<path d="M0 0 C3.49 3.25 6.85 6.71 9 11 C8.92 23.14 6.54 33.11 -2 42 C-9.83 48.58 -19.4 47.74 -29.1 47.29 C-37.51 46.45 -46.93 43.71 -54 39 C-56.24 30.6 -51.84 22.23 -48 15 C-42.4 6.27 -35.17 -0.41 -25.14 -3.59 C-16.57 -5.23 -7.45 -4.8 0 0 Z " fill="#9F9F9F" transform="translate(860,589)"/>
<path d="M0 0 C4.23 3.71 5.89 7.35 6.27 12.96 C6.59 23.79 5.6 32.05 1 42 C0.59 42.9 0.19 43.8 -0.23 44.73 C-3.09 50.71 -6.51 56.37 -10 62 C-21.34 52.74 -28.02 43.76 -30 29 C-30.79 21 -29.16 12.27 -24.3 5.71 C-17.91 -0.38 -8.37 -4.47 0 0 Z " fill="#FDFDFD" transform="translate(405,532)"/>
<path d="M0 0 C12.9 10.17 17.4 30.47 19.46 45.91 C21.51 65.35 21.56 86.77 18 106 C17.73 107.51 17.73 107.51 17.45 109.06 C14.03 127.36 9.8 145.99 1.7 162.86 C0.48 165.54 -0.01 166.75 0.13 169.73 C0.42 170.48 0.7 171.23 1 172 C1.3 172.84 1.6 173.68 1.9 174.55 C2.24 175.46 2.59 176.37 2.94 177.31 C9.72 197.44 6.88 218.44 4 239 C2.1 239.56 2.1 239.56 0 240 C-3.63 237.77 -4.02 233.91 -5 230 C-5.33 229.01 -5.66 228.02 -6 227 C-7.02 227.43 -7.02 227.43 -8.06 227.88 C-11.56 228.02 -12.01 227.48 -14.56 225.25 C-15.72 224.18 -16.87 223.1 -18 222 C-20.9 219.29 -21.64 219.02 -25.75 218.81 C-26.82 218.87 -27.89 218.94 -29 219 C-29 218.34 -29 217.68 -29 217 C-29.62 216.73 -30.24 216.46 -30.88 216.19 C-33 215 -33 215 -35 212 C-36.66 211.31 -38.32 210.64 -40 210 C-40.5 209.01 -40.5 209.01 -41 208 C-40.06 205.38 -40.06 205.38 -39 203 C-40.07 202.71 -41.14 202.42 -42.25 202.12 C-45.09 201.27 -47.44 200.44 -50 199 C-47.34 195.56 -44.1 195 -40 194 C-41.32 193.34 -42.64 192.68 -44 192 C-43.67 191.34 -43.34 190.68 -43 190 C-38.1 190.51 -33.55 190.99 -29 193 C-28.01 194.32 -27.02 195.64 -26 197 C-29.3 197.33 -32.6 197.66 -36 198 C-34.35 198.99 -32.7 199.98 -31 201 C-31.57 203.87 -31.86 204.86 -34 207 C-33.38 207.6 -32.76 208.2 -32.12 208.81 C-30 211 -30 211 -28 214 C-26.03 214.23 -24.05 214.46 -22.07 214.64 C-18.79 215.21 -16.66 217.05 -14 219 C-12.44 219.82 -10.88 220.64 -9.31 221.44 C-5.62 223.44 -3.83 225.13 -2 229 C-1.34 229.33 -0.68 229.66 0 230 C0 230.66 0 231.32 0 232 C0.66 232 1.32 232 2 232 C3.96 202.81 3.96 202.81 -2.1 174.48 C-2.4 173.66 -2.69 172.84 -3 172 C-3.28 171.25 -3.56 170.51 -3.84 169.74 C-4.09 165.36 -2.18 161.9 -0.44 157.94 C11.24 129.89 16.23 100.79 16.25 70.5 C16.25 69.65 16.25 68.81 16.25 67.93 C16.22 46.17 14.89 21.43 0 4 C-2.44 2.79 -2.44 2.79 -5 3 C-7.09 4.14 -7.09 4.14 -8.88 6 C-9.56 6.65 -10.25 7.3 -10.96 7.97 C-11.97 8.97 -11.97 8.97 -13 10 C-13.59 10.59 -14.18 11.18 -14.79 11.78 C-15.94 12.94 -17.09 14.1 -18.23 15.26 C-20.68 17.67 -23.26 19.9 -25.86 22.13 C-28.15 24.13 -30.38 26.19 -32.62 28.25 C-37.13 32.33 -41.85 36.05 -46.66 39.75 C-51.86 43.8 -56.68 48.17 -61.48 52.69 C-67.27 58 -67.27 58 -70 58 C-68.42 53.69 -65.11 51.27 -61.69 48.44 C-61.06 47.91 -60.44 47.39 -59.8 46.85 C-58.5 45.76 -57.21 44.68 -55.91 43.59 C-54.12 42.1 -52.34 40.6 -50.57 39.09 C-45.47 34.74 -40.34 30.45 -35.12 26.25 C-31.42 23.23 -27.99 20.11 -24.67 16.68 C-22.87 14.87 -20.99 13.22 -19.06 11.56 C-15.4 8.42 -12.02 5.06 -8.66 1.6 C-5.63 -1.32 -3.95 -1.17 0 0 Z " fill="#9F9F9F" transform="translate(974,353)"/>
<path d="M0 0 C4.31 3.99 6.77 9.14 7 15 C7.05 15.82 7.1 16.65 7.15 17.5 C7.39 24.22 7.22 31.32 2.57 36.63 C-2.8 41.31 -7.67 41.33 -14.5 41.29 C-21.46 40.71 -27.57 38.38 -33 34 C-32.42 28.84 -30.8 24.83 -28.5 20.25 C-27.97 19.2 -27.97 19.2 -27.43 18.13 C-23.92 11.41 -19.53 4.24 -12.54 0.79 C-8.25 -0.54 -4.4 -1.16 0 0 Z " fill="#FDFDFD" transform="translate(670,836)"/>
<path d="M0 0 C5.63 1.07 11.04 1.36 16.75 1.38 C17.55 1.38 18.35 1.39 19.17 1.4 C24.15 1.38 28.21 0.68 32.94 -0.88 C35.56 -1.38 35.56 -1.38 37.94 -0.88 C40.94 1.99 42.79 3.8 43.25 8 C43.15 8.7 43.04 9.4 42.94 10.12 C41.93 10.39 40.92 10.66 39.88 10.94 C32.97 12.63 32.97 12.63 27.79 16.91 C26.86 19.34 26.48 21.56 26.12 24.12 C25.46 27.62 25.08 28.95 22.75 31.75 C19.02 33.58 17.06 33.82 12.94 33.12 C9.71 31.6 7.23 29.88 4.94 27.12 C4.25 24.75 4.06 22.74 4.07 20.27 C3.91 17.75 3.27 16.26 1.94 14.12 C-1.02 12.56 -4.07 11.88 -7.31 11.12 C-8.55 10.79 -9.79 10.47 -11.06 10.12 C-11.39 9.47 -11.72 8.8 -12.06 8.12 C-9.89 1.71 -9.89 1.71 -7.27 -0.15 C-4.45 -1.08 -2.88 -0.67 0 0 Z " fill="#1E1D1C" transform="translate(739.0625,702.875)"/>
<path d="M0 0 C4.09 2.35 6.98 5 8.75 9.44 C9.62 14.75 9.44 18.98 7.12 23.88 C2.21 29.18 -1.96 31.22 -9 31.69 C-15.65 31.59 -21.53 29.16 -26.25 24.44 C-28.84 20.34 -30.02 17.27 -29.25 12.44 C-26.53 6.05 -22.42 2.45 -16.25 -0.56 C-10.75 -2.4 -5.34 -2.37 0 0 Z " fill="#1E1D1C" transform="translate(617.25,585.5625)"/>
<path d="M0 0 C0.71 0.01 1.41 0.01 2.14 0.02 C8.54 0.17 14.46 1.43 20.56 3.38 C20.56 4.04 20.56 4.69 20.56 5.38 C19.3 5.23 18.03 5.09 16.72 4.94 C15.02 4.75 13.32 4.56 11.62 4.38 C10.38 4.23 10.38 4.23 9.11 4.09 C3.56 3.48 -1.85 3.28 -7.44 3.38 C-7.44 4.37 -7.44 5.36 -7.44 6.38 C-6.73 6.47 -6.01 6.56 -5.28 6.65 C-0.93 7.76 2.22 10.4 5.84 12.98 C9.06 14.63 10.19 14.4 13.56 13.38 C14.55 13.38 15.54 13.38 16.56 13.38 C16.64 14.31 16.64 14.31 16.71 15.27 C16.79 16.09 16.86 16.91 16.94 17.75 C17.01 18.56 17.08 19.37 17.15 20.21 C17.39 22.58 17.39 22.58 19.56 24.38 C20.22 23.71 20.88 23.06 21.56 22.38 C22.55 22.38 23.54 22.38 24.56 22.38 C24.59 23.06 24.61 23.75 24.64 24.46 C24.7 25.36 24.75 26.26 24.81 27.19 C24.86 28.08 24.91 28.97 24.95 29.89 C25.73 33.04 26.93 33.61 29.56 35.38 C30.31 37.01 31.06 38.65 31.71 40.33 C33.38 44.33 35.47 49.28 38.56 52.38 C38.9 54.26 38.9 54.26 39.25 56.19 C40.06 60.12 41.41 62.99 43.44 66.44 C48.01 75.06 48.77 84.78 50.06 94.34 C50.47 96.82 50.98 99.2 51.57 101.64 C52.64 106.37 53.07 111.03 53.38 115.86 C53.44 116.73 53.5 117.59 53.56 118.49 C53.76 121.22 53.94 123.95 54.12 126.69 C54.31 129.44 54.5 132.19 54.7 134.94 C54.82 136.65 54.93 138.35 55.04 140.05 C55.31 144.25 55.31 144.25 56.07 148.38 C56.93 151.84 56.95 155.39 57.12 158.94 C57.17 159.77 57.21 160.6 57.26 161.46 C57.58 168.24 57.63 175 57.53 181.79 C57.43 190.1 57.44 196.6 62.56 203.38 C62.56 204.03 62.56 204.69 62.56 205.38 C60.19 206 60.19 206 57.56 206.38 C53.47 202.29 54.39 195.71 54.32 190.21 C54.28 188.61 54.25 187.01 54.22 185.4 C54.21 184.57 54.19 183.74 54.17 182.88 C53.83 164.88 53.83 164.88 52.35 146.94 C51.81 142.15 51.43 137.38 51.2 132.55 C50.41 117.05 48.25 102.79 44.17 87.81 C43.39 84.7 43.01 81.55 42.56 78.38 C41.79 76.28 41.79 76.28 40.75 74.5 C37.99 69.32 35.37 64.07 33.69 58.44 C31.43 52.3 27.7 46.81 23.75 41.62 C21.56 38.38 21.56 38.38 21.12 35.12 C20.94 34.22 20.75 33.31 20.56 32.38 C18.58 31.34 16.58 30.34 14.56 29.38 C14.06 26.88 14.06 26.88 13.56 24.38 C11.57 23.37 9.57 22.37 7.56 21.38 C5.91 19.95 4.31 18.47 2.75 16.94 C-1.64 12.85 -5.78 10.33 -11.44 8.38 C-11.1 5.85 -10.77 3.88 -9.36 1.73 C-6.43 -0.33 -3.45 -0.07 0 0 Z " fill="#9E9E9E" transform="translate(643.4375,429.625)"/>
<path d="M0 0 C0.93 -0 1.85 -0 2.81 -0 C15.69 0.09 28.54 1.17 41.38 2.19 C41.87 3.67 41.87 3.67 42.38 5.19 C33.74 7.4 25.04 8.06 16.18 8.79 C3.53 9.84 -9 11.06 -20.31 17.19 C-20.99 17.53 -21.66 17.87 -22.36 18.23 C-27.48 20.89 -30.29 23.58 -33.62 28.19 C-32.6 27.64 -31.57 27.1 -30.51 26.54 C-15.54 18.76 -2.59 16.01 14.25 16 C15.77 15.98 15.77 15.98 17.32 15.96 C24.21 15.95 30.64 16.72 37.38 18.19 C32.22 23.18 26.3 24.28 19.31 24.31 C18.34 24.27 17.37 24.23 16.38 24.19 C16.38 22.87 16.38 21.55 16.38 20.19 C-2.32 19.72 -19.91 22.12 -35.51 33.18 C-38.25 34.48 -39.78 34.03 -42.62 33.19 C-39.63 24 -30.05 18.2 -21.93 13.75 C-8.92 7.58 4.13 6.07 18.38 5.19 C0.46 1.19 -20.26 3.37 -35.87 13.18 C-39.65 15.93 -43.04 18.99 -46.37 22.27 C-48.71 24.26 -50.73 25.22 -53.62 26.19 C-54.69 24.38 -54.69 24.38 -55.62 22.19 C-55.13 20.7 -55.13 20.7 -54.62 19.19 C-53.3 19.85 -51.99 20.51 -50.62 21.19 C-49.89 20.46 -49.89 20.46 -49.15 19.72 C-35.31 6.63 -18.97 -0.01 0 0 Z " fill="#A0A0A0" transform="translate(906.625,448.8125)"/>
<path d="M0 0 C0.5 0.99 0.5 0.99 1 2 C-0.04 4.22 -1.14 6.27 -2.38 8.38 C-2.74 9 -3.1 9.62 -3.48 10.27 C-11.24 23.34 -23.39 41.92 -38 48 C-40.69 48.19 -40.69 48.19 -43 48 C-43.33 47.67 -43.66 47.34 -44 47 C-43.82 35.96 -38.15 27.01 -30.4 19.44 C-26.15 15.53 -21.55 12.12 -16.88 8.75 C-16.29 8.33 -15.7 7.9 -15.1 7.46 C-10.44 4.16 -5.7 1.1 0 0 Z " fill="#FDFDFD" transform="translate(761,867)"/>
<path d="M0 0 C0 0.66 0 1.32 0 2 C-2.6 2.67 -5.21 3.34 -7.81 4 C-8.55 4.19 -9.29 4.38 -10.05 4.58 C-13.11 5.35 -15.83 6 -19 6 C-19 6.99 -19 7.98 -19 9 C-18.34 8.67 -17.68 8.34 -17 8 C-15 7.9 -13 7.87 -11 7.88 C-9.39 7.87 -9.39 7.87 -7.75 7.87 C-5 8 -5 8 -3 9 C-3 9.66 -3 10.32 -3 11 C-8.39 12.46 -13.82 13.59 -19.31 14.62 C-20.02 14.76 -20.72 14.9 -21.45 15.03 C-24.35 15.57 -27.04 16 -30 16 C-30 16.66 -30 17.32 -30 18 C-29.44 17.99 -28.89 17.98 -28.31 17.96 C-23.1 17.9 -18.16 18.25 -13 19 C-12.5 20.49 -12.5 20.49 -12 22 C-21.57 22 -31.14 22 -41 22 C-42 14 -42 14 -39.88 11.12 C-37.26 9.19 -35.09 7.97 -32 7 C-34.93 7 -37.49 7.36 -40.38 7.88 C-41.78 8.12 -41.78 8.12 -43.21 8.37 C-46.02 8.93 -46.02 8.93 -48.64 10.06 C-51.53 11.21 -53.92 11.14 -57 11 C-57.33 10.34 -57.66 9.68 -58 9 C-52.46 3.15 -52.46 3.15 -49 2 C-47.43 2.52 -45.86 3.05 -44.31 3.64 C-40.79 4.19 -37.51 3.37 -34.06 2.69 C-32.53 2.4 -31 2.12 -29.47 1.84 C-28.71 1.69 -27.96 1.55 -27.18 1.41 C-5.33 -2.66 -5.33 -2.66 0 0 Z " fill="#9E9E9E" transform="translate(940,479)"/>
<path d="M0 0 C4.79 1.42 9.54 1.29 14.5 1.25 C15.42 1.26 16.34 1.27 17.28 1.27 C22.27 1.26 26.23 0.84 30.93 -1 C38.02 -1.83 43.02 0.03 48.93 4 C52.17 7.04 55.64 10.46 56.17 15.03 C56.52 26.68 51.68 34.61 43.93 43 C36.17 50.98 26.4 59.17 15 60.44 C5.09 60.31 -3.95 53.34 -11.07 47 C-11.8 46.35 -11.8 46.35 -12.55 45.68 C-19.35 39.55 -24.72 34.15 -27.07 25 C-26.08 25 -25.09 25 -24.07 25 C-23.75 25.68 -23.43 26.36 -23.11 27.05 C-16.71 39.82 -7.29 47.24 4.93 54 C5.96 54.59 5.96 54.59 7 55.18 C12.16 57.36 17.74 56.86 22.86 54.86 C34.89 48.3 45.53 38.64 51.25 26.12 C52.38 20.99 53.37 15.75 50.84 10.91 C47.54 6.76 44.07 4.51 38.93 3 C33.84 2.48 29.93 3.18 25 4.5 C17.27 6.53 11.6 6.53 3.87 4.5 C-6.94 1.68 -12.25 3.39 -22.07 9 C-23.06 9.66 -24.05 10.32 -25.07 11 C-24.71 8.25 -24.31 7.21 -22.18 5.37 C-21.4 4.87 -20.62 4.38 -19.82 3.88 C-19.05 3.38 -18.28 2.88 -17.49 2.37 C-11.59 -0.96 -6.63 -2.16 0 0 Z " fill="#9B9B9B" transform="translate(521.06640625,684)"/>
<path d="M0 0 C3.15 3.58 4.63 7.48 5.75 12.06 C4.57 16.7 1.43 19.75 -2 23 C-5.28 24.64 -8.47 24.66 -12 24 C-16.16 21.73 -19.48 19.57 -21 15 C-21.37 9.98 -21.14 7 -18 3 C-12.42 -2.15 -7 -3.36 0 0 Z " fill="#1E1D1C" transform="translate(465,575)"/>
<path d="M0 0 C3.2 3.28 4.28 6.08 4.62 10.56 C4.52 13.17 4.36 14.54 2.75 16.62 C1.19 17.94 1.19 17.94 -2 20 C-2.99 20.66 -3.98 21.32 -5 22 C-9.63 22.85 -13.92 22.51 -18.06 20.19 C-20.35 18.33 -20.93 17.31 -21.57 14.39 C-21.74 10.09 -21.43 6.9 -19.56 3 C-13.72 -1.56 -6.85 -3.62 0 0 Z " fill="#1E1D1C" transform="translate(592,825)"/>
<path d="M0 0 C-1.89 3.78 -7.41 5.17 -11.19 6.9 C-11.9 7.24 -12.61 7.58 -13.34 7.93 C-13.99 8.23 -14.65 8.53 -15.32 8.84 C-17.41 10.28 -18.07 11.67 -19 14 C-19 14.33 -19 14.66 -19 15 C-18.12 14.53 -17.23 14.06 -16.32 13.57 C-2.05 6.11 10.82 3.82 26.88 3.81 C28.39 3.79 28.39 3.79 29.94 3.78 C36.83 3.76 43.27 4.53 50 6 C44.84 10.99 38.93 12.1 31.94 12.12 C30.97 12.08 30 12.04 29 12 C29 10.68 29 9.36 29 8 C10.31 7.53 -7.28 9.94 -22.89 21 C-25.62 22.3 -27.15 21.84 -30 21 C-26.62 10.65 -15.16 4.69 -6 0 C-3 -1 -3 -1 0 0 Z " fill="#A1A1A1" transform="translate(894,461)"/>
<path d="M0 0 C4.31 3.61 6.91 7.28 7.77 12.92 C7.93 17.65 7.69 21.09 5.75 25.44 C1.56 29.74 -2.14 32.12 -8.12 32.5 C-14.38 32.21 -18.56 28.79 -23.12 24.81 C-26 21.36 -26.1 17.73 -26.02 13.42 C-25.41 8.86 -23.75 5.36 -20.69 1.94 C-13.83 -2.54 -7.56 -2.99 0 0 Z M-19.06 6.94 C-22.11 10.69 -22.01 14.26 -21.69 18.94 C-19.78 23.49 -17.05 25.71 -12.69 27.94 C-8.54 28.6 -6.26 28.92 -2.69 26.69 C0.82 23.76 3.97 21.01 4.75 16.31 C4.12 11.44 2.55 7.66 -0.69 3.94 C-7.42 0.32 -13.39 2.16 -19.06 6.94 Z " fill="#FDFDFD" transform="translate(465.6875,571.0625)"/>
<path d="M0 0 C1.16 0.13 1.16 0.13 2.35 0.27 C4.38 0.75 4.38 0.75 6.38 2.75 C9.01 3.09 11.6 3.35 14.25 3.56 C24.66 4.59 35.24 7.84 43.38 14.75 C43.87 16.24 43.87 16.24 44.38 17.75 C37.73 17.33 31.28 16.42 24.75 15.19 C18.87 14.09 13.38 13.32 7.38 13.75 C7.04 14.08 6.72 14.41 6.38 14.75 C7.7 15.74 9.01 16.73 10.38 17.75 C6.84 17.75 3.73 17.43 0.25 16.88 C-0.8 16.71 -1.86 16.55 -2.95 16.38 C-5.62 15.75 -5.62 15.75 -7.62 13.75 C-4.67 10.51 -2.59 9.81 1.86 9.55 C11.77 9.37 20.74 10.39 30.38 12.75 C29.88 12.25 29.88 12.25 29.38 11.75 C29.38 11.09 29.38 10.43 29.38 9.75 C20.37 7.93 11.36 7.17 2.21 6.54 C1.24 6.46 0.27 6.39 -0.72 6.31 C-2.03 6.22 -2.03 6.22 -3.36 6.13 C-5.62 5.75 -5.62 5.75 -8.62 3.75 C-8.62 3.09 -8.62 2.43 -8.62 1.75 C-5.52 -0.09 -3.57 -0.45 0 0 Z " fill="#9F9F9F" transform="translate(909.625,504.25)"/>
<path d="M0 0 C0.33 0 0.66 0 1 0 C4.54 20.55 4.54 20.55 4 29 C1.82 31.18 -2.55 31.06 -5.56 31.56 C-6.37 31.7 -7.18 31.84 -8.01 31.98 C-10 32.33 -12 32.66 -14 33 C-15.12 29.31 -15.12 29.31 -14.07 26.55 C-13.57 25.62 -13.07 24.7 -12.56 23.75 C-12.01 22.71 -11.46 21.66 -10.9 20.59 C-10.6 20.02 -10.29 19.45 -9.98 18.87 C-7.78 14.68 -5.72 10.41 -3.63 6.17 C-1.11 1.11 -1.11 1.11 0 0 Z " fill="#FCFCFC" transform="translate(387,845)"/>
<path d="M0 0 C8.71 1.71 8.71 1.71 12 5 C12 5.66 12 6.32 12 7 C8.7 7 5.4 7 2 7 C2 7.99 2 8.98 2 10 C4.44 11.72 4.44 11.72 7 13 C6.45 16.85 4.68 18.32 2 21 C2 21.99 2 22.98 2 24 C-0.31 24.33 -2.62 24.66 -5 25 C-4.42 20.81 -3.72 19.62 -1 16 C-7.43 16.5 -7.43 16.5 -14 17 C-13 13 -13 13 -11 10 C-13.76 7.24 -16.21 7.42 -20 7 C-20 6.01 -20 5.02 -20 4 C-12.56 2.73 -5.43 2.48 2 4 C2 3.34 2 2.68 2 2 C1.01 1.67 0.02 1.34 -1 1 C-0.67 0.67 -0.34 0.34 0 0 Z " fill="#9F9F9F" transform="translate(925,523)"/>
<path d="M0 0 C2.54 7.83 -3.66 18.23 -7.09 25.23 C-15.97 41.92 -29.68 53.42 -45 64 C-47.86 65.99 -50.71 68 -53.56 70 C-54.27 70.5 -54.98 70.99 -55.71 71.51 C-60.46 74.87 -65.15 78.31 -69.75 81.88 C-70.31 82.3 -70.87 82.73 -71.45 83.17 C-75.2 86.12 -78.07 89.28 -81 93 C-81 90 -81 90 -79 88 C-78.75 87.23 -78.5 86.46 -78.24 85.67 C-76.63 82.19 -74.21 80.44 -71.19 78.25 C-70.61 77.82 -70.04 77.39 -69.44 76.95 C-64.42 73.23 -59.28 69.68 -54.13 66.15 C-49.35 62.86 -44.65 59.47 -40 56 C-39.18 55.39 -38.36 54.78 -37.52 54.14 C-19.87 40.52 -8.37 24.75 -2.68 2.86 C-2 1 -2 1 0 0 Z " fill="#CCCCCC" transform="translate(805,520)"/>
<path d="M0 0 C0.99 0.33 1.98 0.66 3 1 C2.84 2.05 2.67 3.1 2.5 4.19 C2.66 5.45 2.83 6.7 3 8 C4.79 9.37 4.79 9.37 7 10.44 C9.2 11.64 9.2 11.64 11 13 C12.32 19.07 10.44 22.9 7.48 28.21 C6 30 6 30 3.96 30.85 C2 31 2 31 -0.12 29.44 C-4.37 23.92 -4.82 17.74 -4 11 C-2.9 7.23 -1.54 3.62 0 0 Z " fill="#1E1D1C" transform="translate(834,596)"/>
<path d="M0 0 C20.07 8.16 38.28 19.5 56.49 31.13 C60.97 33.99 65.47 36.79 70 39.56 C70.72 40.01 71.45 40.45 72.19 40.91 C76.21 43.35 80.26 45.73 84.35 48.06 C85.23 48.56 86.11 49.07 87.02 49.58 C88.73 50.55 90.44 51.52 92.16 52.47 C92.92 52.91 93.69 53.34 94.48 53.79 C95.16 54.17 95.84 54.55 96.54 54.94 C97.26 55.46 97.26 55.46 98 56 C98 56.66 98 57.32 98 58 C93.4 57.41 89.83 55.47 85.88 53.19 C84.83 52.59 84.83 52.59 83.76 51.98 C75.92 47.45 68.3 42.57 60.66 37.7 C40.91 25.1 21.07 13.27 0 3 C0 2.01 0 1.02 0 0 Z " fill="#9F9F9F" transform="translate(688,441)"/>
<path d="M0 0 C2.38 2.17 3.68 4.17 5.06 7.06 C10.94 17.81 20.56 24.23 31 30 C32.02 30.59 32.02 30.59 33.07 31.18 C38.22 33.36 43.81 32.86 48.93 30.86 C59.02 25.35 66.97 17.09 75 9 C75 14.61 72.49 16.37 68.77 20.33 C61.08 27.75 51.76 35.69 40.69 36.62 C30.99 36.13 22 29.24 15 23 C14.51 22.56 14.02 22.13 13.51 21.68 C6.72 15.55 1.35 10.15 -1 1 C-0.67 0.67 -0.34 0.34 0 0 Z " fill="#A4A4A4" transform="translate(495,708)"/>
<path d="M0 0 C2.69 2.58 4.46 5.62 6 9 C5.88 12.56 5.88 12.56 5 15 C4.42 15.18 3.84 15.36 3.24 15.55 C1.62 16.07 0 16.62 -1.61 17.18 C-3.53 17.84 -5.48 18.43 -7.44 19 C-11.13 21.88 -10.92 24.84 -11.51 29.33 C-12.14 32.78 -13.46 34.61 -16 37 C-20.05 39.7 -23.25 39.66 -28 39 C-31.5 37.31 -31.5 37.31 -34 35 C-34.88 32.25 -34.88 32.25 -35 30 C-34.5 30.36 -34.01 30.72 -33.5 31.09 C-30.02 33.47 -27.51 34.91 -23.31 35.62 C-18.88 34.79 -17.59 33.69 -15 30 C-14.36 27.45 -13.93 24.91 -13.52 22.31 C-12.81 19.16 -11.64 17.81 -9 16 C-5.43 14.21 -1.94 13.55 2 13 C2.39 9.6 2.1 8.17 0.31 5.19 C-1.81 2.74 -1.81 2.74 -4.75 2.69 C-5.49 2.79 -6.24 2.89 -7 3 C-7 2.34 -7 1.68 -7 1 C-4.42 -0.29 -2.87 -0.35 0 0 Z " fill="#A1A1A1" transform="translate(779,700)"/>
<path d="M0 0 C0.66 0.33 1.32 0.66 2 1 C-4.19 8.24 -10.63 14.92 -17.86 21.13 C-20.15 23.13 -22.38 25.19 -24.62 27.25 C-29.13 31.33 -33.85 35.05 -38.66 38.75 C-43.86 42.8 -48.68 47.17 -53.48 51.69 C-59.27 57 -59.27 57 -62 57 C-60.42 52.69 -57.11 50.27 -53.69 47.44 C-53.06 46.91 -52.44 46.39 -51.8 45.85 C-50.5 44.76 -49.21 43.68 -47.91 42.59 C-46.12 41.1 -44.34 39.6 -42.57 38.09 C-37.47 33.74 -32.34 29.45 -27.12 25.25 C-23.42 22.24 -19.99 19.11 -16.68 15.68 C-14.86 13.86 -12.95 12.18 -11 10.5 C-7.14 7.18 -3.55 3.65 0 0 Z " fill="#727271" transform="translate(966,354)"/>
<path d="M0 0 C2.25 0.94 2.25 0.94 4.25 3.94 C4.5 7.5 4.5 7.5 4.25 10.94 C2.25 12.94 2.25 12.94 -1.62 13.31 C-4.7 13.23 -5.65 13.01 -8.31 11.25 C-9.75 8.94 -9.75 8.94 -9.88 6.44 C-7.95 2.16 -4.72 -0.11 0 0 Z " fill="#A1A1A1" transform="translate(614.75,590.0625)"/>
<path d="M0 0 C2.54 7.83 -3.66 18.23 -7.09 25.23 C-12.93 36.21 -20.91 44.62 -30 53 C-30.66 52.67 -31.32 52.34 -32 52 C-31.59 51.61 -31.18 51.23 -30.76 50.83 C-28.89 49.04 -27.04 47.24 -25.19 45.44 C-24.54 44.83 -23.9 44.22 -23.24 43.59 C-19.16 39.59 -16.98 36.35 -15 31 C-14.09 29.5 -13.16 28.02 -12.19 26.56 C-7.76 19.39 -4.31 10.82 -2.46 2.59 C-2.31 2.06 -2.16 1.54 -2 1 C-1.34 0.67 -0.68 0.34 0 0 Z " fill="#B0B0B0" transform="translate(805,520)"/>
<path d="M0 0 C-1.89 3.78 -7.41 5.17 -11.19 6.9 C-11.9 7.24 -12.61 7.58 -13.34 7.93 C-13.99 8.23 -14.65 8.53 -15.32 8.84 C-17.4 10.28 -17.95 11.74 -19 14 C-19.99 14.5 -19.99 14.5 -21 15 C-21.14 15.8 -21.29 16.61 -21.44 17.44 C-22 20 -22 20 -25 22 C-27.69 21.62 -27.69 21.62 -30 21 C-26.62 10.65 -15.16 4.69 -6 0 C-3 -1 -3 -1 0 0 Z " fill="#949494" transform="translate(894,461)"/>
<path d="M0 0 C0.99 0.33 1.98 0.66 3 1 C2.54 1.43 2.07 1.86 1.6 2.31 C-15.34 17.81 -15.34 17.81 -30.41 35.07 C-32 37 -32 37 -34 38 C-31.79 24.77 -10.48 7.55 0 0 Z " fill="#727271" transform="translate(894,417)"/>
<path d="M0 0 C3.44 0.69 3.44 0.69 5.44 1.69 C5.44 2.35 5.44 3.01 5.44 3.69 C3.83 3.41 3.83 3.41 2.19 3.12 C-1.63 2.46 -1.63 2.46 -5.56 3.69 C-6.22 6.33 -6.88 8.97 -7.56 11.69 C-6.65 11.92 -5.73 12.15 -4.79 12.39 C-3.6 12.71 -2.41 13.04 -1.19 13.38 C-0 13.69 1.18 14 2.4 14.32 C5.44 15.69 5.44 15.69 6.85 18.33 C7.04 19.11 7.24 19.89 7.44 20.69 C6.78 20.69 6.12 20.69 5.44 20.69 C5.11 20.03 4.78 19.37 4.44 18.69 C1.46 17.83 -1.55 17.21 -4.58 16.57 C-7.54 15.69 -9.26 14.69 -11.56 12.69 C-7.53 -0.66 -7.53 -0.66 0 0 Z " fill="#9D9D9D" transform="translate(735.5625,700.3125)"/>
<path d="M0 0 C0 0.66 0 1.32 0 2 C-2.12 3.45 -4.24 4.8 -6.44 6.12 C-12.51 9.89 -17.86 14.01 -23 19 C-24.32 18.34 -25.64 17.68 -27 17 C-26.67 15.35 -26.34 13.7 -26 12 C-24.68 12.66 -23.36 13.32 -22 14 C-21.47 13.49 -20.93 12.98 -20.38 12.46 C-6.9 0 -6.9 0 0 0 Z " fill="#B0B0B0" transform="translate(878,456)"/>
<path d="M0 0 C1.88 0.94 1.88 0.94 3.88 3.94 C3.95 6.27 3.96 8.61 3.88 10.94 C2.4 10.8 0.92 10.65 -0.56 10.5 C-1.39 10.42 -2.21 10.34 -3.06 10.25 C-5.12 9.94 -5.12 9.94 -6.12 8.94 C-6.58 5.59 -6.41 4.32 -4.38 1.56 C-2.12 -0.06 -2.12 -0.06 0 0 Z " fill="#FDFDFD" transform="translate(845.125,594.0625)"/>
<path d="M0 0 C-0.33 0.66 -0.66 1.32 -1 2 C-3.51 2.58 -3.51 2.58 -6.83 3.04 C-8.02 3.2 -9.21 3.37 -10.44 3.55 C-11.7 3.72 -12.96 3.89 -14.25 4.06 C-16.71 4.41 -19.18 4.75 -21.64 5.1 C-22.74 5.25 -23.84 5.4 -24.97 5.55 C-27.67 5.95 -30.33 6.44 -33 7 C-32.67 6.01 -32.34 5.02 -32 4 C-29.61 3.08 -27.42 2.4 -24.94 1.81 C-23.88 1.55 -23.88 1.55 -22.8 1.28 C-15.19 -0.43 -7.75 -0.37 0 0 Z " fill="#989898" transform="translate(926,455)"/>
<path d="M0 0 C0.74 0.54 0.74 0.54 1.5 1.09 C6.15 4.27 9.2 5.77 15 5 C17.49 4.17 19.66 3.17 22 2 C20.6 5.4 19.3 7.31 16 9 C11.24 9.75 7.86 9.41 3.5 7.31 C0.78 4.8 0.2 3.64 0 0 Z " fill="#A1A1A1" transform="translate(744,730)"/>
<path d="M0 0 C-1.5 3.76 -3.6 5.48 -6.81 7.88 C-10.82 10.97 -13.97 13.96 -17 18 C-17 15 -17 15 -15 13 C-14.6 11.83 -14.6 11.83 -14.18 10.64 C-12.71 7.34 -10.9 5.9 -8.06 3.69 C-6.75 2.64 -6.75 2.64 -5.41 1.57 C-3 0 -3 0 0 0 Z " fill="#C1C1C1" transform="translate(741,595)"/>
<path d="M0 0 C6.34 0.62 12.67 1.29 19 2 C19 2.99 19 3.98 19 5 C14.71 5 10.42 5 6 5 C6 4.34 6 3.68 6 3 C4.02 3 2.04 3 0 3 C0 2.01 0 1.02 0 0 Z " fill="#9F9F9F" transform="translate(933,499)"/>
<path d="M0 0 C0.66 0.33 1.32 0.66 2 1 C-3.23 7.55 -9.18 13.11 -16 18 C-16.66 18 -17.32 18 -18 18 C-16.68 15 -15.33 13.15 -12.81 11.05 C-12.2 10.54 -11.58 10.02 -10.95 9.48 C-10.3 8.95 -9.66 8.42 -9 7.88 C-7.73 6.81 -6.46 5.75 -5.19 4.68 C-4.62 4.21 -4.06 3.75 -3.48 3.27 C-2.27 2.23 -1.12 1.12 0 0 Z " fill="#706F6F" transform="translate(922,393)"/>
<path d="M0 0 C2.69 0.31 2.69 0.31 5 1 C5.33 2.98 5.66 4.96 6 7 C3.69 7 1.38 7 -1 7 C-1.66 5.68 -2.32 4.36 -3 3 C-1.81 1.44 -1.81 1.44 0 0 Z " fill="#FBFBFB" transform="translate(611,593)"/>
<path d="M0 0 C7.2 3.2 7.2 3.2 9 7 C9.23 10.02 9.17 12.98 9 16 C8.01 15.67 7.02 15.34 6 15 C5.91 14.31 5.83 13.63 5.74 12.92 C5.01 7.13 5.01 7.13 1.38 2.88 C0.59 2.59 -0.19 2.3 -1 2 C-0.67 1.34 -0.34 0.68 0 0 Z " fill="#9F9F9F" transform="translate(798,503)"/>
<path d="M0 0 C0.66 0.33 1.32 0.66 2 1 C0.57 4.14 -1.15 6.62 -3.38 9.25 C-3.96 9.96 -4.55 10.66 -5.15 11.39 C-7 13 -7 13 -11 13 C-10.62 12.56 -10.25 12.13 -9.86 11.68 C-6.54 7.81 -3.25 3.92 0 0 Z " fill="#C9C9C9" transform="translate(569,717)"/>
<path d="M0 0 C-1.59 3.19 -4.8 4.16 -7.88 5.69 C-8.51 6.02 -9.15 6.35 -9.81 6.7 C-11.5 7.55 -13.25 8.28 -15 9 C-15.99 8.67 -16.98 8.34 -18 8 C-13.5 3.95 -6.17 -2.06 0 0 Z " fill="#7A7A79" transform="translate(894,461)"/>
<path d="M0 0 C0.66 0.33 1.32 0.66 2 1 C-2.46 6.22 -7.07 11.21 -12 16 C-12.99 15.67 -13.98 15.34 -15 15 C-10 10 -5 5 0 0 Z " fill="#6F6E6E" transform="translate(966,354)"/>
<path d="M0 0 C-3.72 3.72 -9.48 3.95 -14.56 4.12 C-15.37 4.08 -16.17 4.04 -17 4 C-17 3.34 -17 2.68 -17 2 C-15.11 1.47 -13.21 0.95 -11.31 0.44 C-10.26 0.15 -9.2 -0.14 -8.11 -0.44 C-4.99 -1 -3.02 -0.85 0 0 Z " fill="#989898" transform="translate(922,473)"/>
<path d="M0 0 C1.5 3.88 0.43 6.43 -0.94 10.25 C-1.32 11.33 -1.7 12.41 -2.09 13.52 C-2.39 14.34 -2.69 15.16 -3 16 C-3.99 15.67 -4.98 15.34 -6 15 C-5.38 12.68 -4.76 10.37 -4.12 8.06 C-3.95 7.4 -3.78 6.74 -3.6 6.06 C-3.13 4.36 -2.57 2.68 -2 1 C-1.34 0.67 -0.68 0.34 0 0 Z " fill="#B1B1B1" transform="translate(805,520)"/>
<path d="M0 0 C0.66 0.33 1.32 0.66 2 1 C2.12 8.62 2.12 8.62 1 12 C-1.56 13.69 -1.56 13.69 -4 15 C-3.71 14.38 -3.42 13.76 -3.12 13.12 C-1.58 8.84 -0.82 4.47 0 0 Z " fill="#B0B0B0" transform="translate(766,720)"/>
<path d="M0 0 C0 0.66 0 1.32 0 2 C-2.3 3.76 -2.3 3.76 -5.31 5.69 C-6.3 6.33 -7.28 6.97 -8.3 7.64 C-9.19 8.09 -10.08 8.54 -11 9 C-11.99 8.67 -12.98 8.34 -14 8 C-10.31 3.87 -5.74 0 0 0 Z " fill="#C7C7C7" transform="translate(878,456)"/>
<path d="M0 0 C3.44 0.69 3.44 0.69 5.44 1.69 C5.44 2.35 5.44 3.01 5.44 3.69 C3.83 3.41 3.83 3.41 2.19 3.12 C-0.97 2.76 -2.66 2.64 -5.56 3.69 C-5.56 4.35 -5.56 5.01 -5.56 5.69 C-6.55 6.02 -7.54 6.35 -8.56 6.69 C-6.87 1.74 -5.67 -0.5 0 0 Z " fill="#858585" transform="translate(735.5625,700.3125)"/>
<path d="M0 0 C0.66 0.33 1.32 0.66 2 1 C-0.86 4.97 -3.7 7.62 -8 10 C-8.99 9.67 -9.98 9.34 -11 9 C-7.67 5.41 -4.01 2.78 0 0 Z " fill="#CFCFCF" transform="translate(751,586)"/>
<path d="M0 0 C0.66 0 1.32 0 2 0 C1.67 4.29 1.34 8.58 1 13 C-2 10 -2 10 -2.11 8.03 C-1.99 7.34 -1.87 6.65 -1.75 5.94 C-1.64 5.25 -1.53 4.55 -1.42 3.84 C-1 2 -1 2 0 0 Z " fill="#969696" transform="translate(494,695)"/>
<path d="M0 0 C-1.38 3.21 -2.92 5.05 -5.62 7.25 C-6.57 8.03 -6.57 8.03 -7.54 8.83 C-8.02 9.21 -8.5 9.6 -9 10 C-9.66 9.67 -10.32 9.34 -11 9 C-4.25 0 -4.25 0 0 0 Z " fill="#767676" transform="translate(934,385)"/>
<path d="M0 0 C0 3.78 -1 4.46 -3.5 7.19 C-4.47 8.26 -4.47 8.26 -5.47 9.36 C-5.97 9.9 -6.48 10.44 -7 11 C-7.33 10.01 -7.66 9.02 -8 8 C-6.86 6.21 -6.86 6.21 -5.19 4.38 C-4.64 3.76 -4.1 3.15 -3.54 2.52 C-2 1 -2 1 0 0 Z " fill="#787878" transform="translate(868,444)"/>
<path d="M0 0 C-1.58 4.27 -4.51 6.27 -8 9 C-8.66 8.67 -9.32 8.34 -10 8 C-8.91 6.66 -7.8 5.33 -6.69 4 C-5.77 2.89 -5.77 2.89 -4.82 1.75 C-3 0 -3 0 0 0 Z " fill="#B8B8B8" transform="translate(741,595)"/>
</svg>
