<?xml version="1.0" encoding="UTF-8"?>
<svg version="1.1" viewBox="0 0 2048 625" width="1280" height="1280" xmlns="http://www.w3.org/2000/svg">
<path transform="translate(1721)" d="m0 0h25l31 3 28 5 28 8 21 8 22 10 23 13 16 11 13 10 11 9 15 14 11 11 9 11 10 12 16 24 12 21 10 21 9 25 6 20 5 24 3 23 1 14v31l-2 23-4 25-7 27-9 26-12 26-10 18-14 21-10 13-11 13-11 12-10 10-11 9-13 11-19 13-15 9-23 12-24 10-25 8-27 6-21 3-25 2h-18l-33-3-23-4-21-5-27-9-25-11-17-9-22-14-16-12-11-9-12-11-18-18-9-11-13-17-13-20-12-22-9-20-9-25-7-27-4-23-2-19v-48l4-31 6-27 10-30 11-25 10-19 14-22 14-18 12-14 24-24 11-9 13-10 18-12 21-12 23-11 25-9 25-7 27-5zm-6 27-27 3-28 6-33 11-24 11-21 12-16 11-14 11-14 12-16 16-9 11-11 14-12 18-9 16-8 16-10 25-7 24-5 24-3 28v32l3 29 5 24 7 24 10 25 8 16 10 18 14 20 9 11 9 10 7 8 10 10 11 9 12 10 21 14 18 10 23 11 25 9 28 7 27 4 13 1h31l22-2 23-4 23-6 23-8 24-11 18-10 18-12 13-10 14-12 21-21 9-11 10-13 10-15 10-18 8-16 8-20 8-26 5-24 3-25v-43l-3-25-5-24-8-26-8-20-8-16-10-18-8-12-12-16-12-14-23-23-14-11-15-11-21-13-22-11-23-9-23-7-25-5-15-2-13-1z" fill="#FDFDFD"/>
<path transform="translate(1719,258)" d="m0 0h29l18 4 17 7 15 9 13 11 11 11 12 16 9 16 8 21 4 17 1 7v29l-3 14-5 12-6 10-6 7-12 9-14 7-16 5-16 3-23 2h-43l-23-2-20-4-16-6-11-6-10-8-8-9-6-10-5-15-2-13v-22l3-18 5-17 8-18 10-16 9-11 10-11 11-9 14-9 15-7 17-5zm5 26-17 4-16 8-9 6-10 9-7 7-10 14-8 15-6 17-3 14-1 14 1 13 4 13 6 9 7 7 14 7 15 4 23 3h53l24-3 17-5 11-6 8-7 6-10 4-16v-18l-3-17-6-18-9-17-9-12-11-12-13-10-16-8-14-4-6-1z" fill="#FDFDFD"/>
<path transform="translate(990,151)" d="m0 0h29l21 80 9 35 8 38v4l2-1 13-52 24-90 4-14h29l3 9 19 70 15 57 5 20 2-4 13-55 24-94 1-3h27l-1 8-20 74-23 85-4 14-1 1h-34l-3-7-24-89-14-56-4 16-6 25-13 48-16 61-2 2h-32l-3-7-22-78-25-89z" fill="#3CE3D0"/>
<path transform="translate(1326,42)" d="m0 0h9l5 4 4 8 1 5v507l-3 10-4 5-4 2h-8l-7-6-3-7-1-6v-504l2-8 4-7z" fill="#3CE3D0"/>
<path transform="translate(86,87)" d="m0 0h33l18 53 15 43 26 77 15 43 9 27v3h-30l-4-9-20-64-1-3-91-1-2 9-21 66-2 2h-29l3-11 14-41 16-47 15-43 14-42 15-43 6-18zm15 24-4 13-12 41-18 56-3 12h76l-6-20-17-54-13-44-2-4z" fill="#3CE3D0"/>
<path transform="translate(615,87)" d="m0 0h87l20 3 18 6 11 6 11 10 7 11 5 13 2 14v17l-3 17-5 12-7 11-10 9-14 8-13 5-19 4-12 1h-49v98l-3 1h-25l-1-1zm29 24v99h51l17-3 13-5 8-6 7-8 4-8 3-16v-10l-2-13-4-9-6-8-9-6-15-5-13-2z" fill="#3CE3D0"/>
<path transform="translate(876,147)" d="m0 0h28l13 3 10 5 10 9 6 9 6 13 3 12 1 7v128h-23l-1-1-2-21-19 13-15 8-13 4-6 1h-18l-15-4-12-7-8-8-7-14-2-10v-15l3-12 5-10 9-10 11-8 18-8 20-6 26-5 20-3-2-18-4-11-4-6-8-7-7-3-5-1h-16l-14 3-15 6-17 9-3-3-9-15 4-4 23-12 18-6zm44 90-24 4-19 5-13 5-10 6-6 5-6 10-2 9 1 13 5 10 8 6 7 3 5 1h15l11-3 14-7 16-12 3-3v-52z" fill="#3CE3D0"/>
<path transform="translate(311,147)" d="m0 0h25l13 4 10 6 8 9 6 12 4 14 2 21v119l-1 1h-27l-1-1-1-124-3-15-6-12-9-6-12-3h-9l-13 3-12 7-13 11-7 7-1 132-1 1h-28v-182h24l2 18v8l11-9 10-8 13-8z" fill="#3CE3D0"/>
<path transform="translate(412,151)" d="m0 0h30l18 48 20 54 18 51 2-3 17-56 30-91 1-3h28l-2 9-18 52-17 48-19 55-15 42-8 17-9 14-8 9-11 8-12 5-13 2-15-1-9-3 1-8 4-14 2-1 10 2 12-1 10-5 5-4 9-13 6-13 5-14-1-9-14-34-14-35-23-57-20-50z" fill="#3CE3D0"/>
<path transform="translate(1671,132)" d="m0 0h14l13 4 10 6 8 8 7 12 3 12v12l-3 12-6 11-6 7-10 7-10 4-4 1h-19l-12-4-10-7-7-7-6-10-4-16v-8l3-13 6-11 8-9 11-7 8-3zm5 26-9 3-8 7-3 7v10l5 10 9 6 3 1h9l10-5 6-8 1-3v-12l-6-10-6-4z" fill="#FEFEFE"/>
<path transform="translate(1780,132)" d="m0 0h14l13 4 10 6 8 8 6 10 3 8 1 6v13l-4 13-6 10-5 6-10 7-10 4-4 1h-18l-10-3-9-5-10-9-6-9-4-12-1-12 2-12 7-14 8-9 11-7 9-3zm5 26-9 3-8 7-3 8v9l5 10 9 6 4 1h8l9-4 6-7 2-4v-13l-3-6-4-5-8-4z" fill="#FEFEFE"/>
<path transform="translate(1843,215)" d="m0 0h8l9 2 9 5 5 4 7 11 2 6 1 9-2 11-5 10-8 8-10 5-4 1h-16l-10-4-8-6-7-10-3-11v-9l4-13 7-9 10-7zm1 27-5 4-1 2v7l5 5 5 1 5-2 4-5-1-8-5-4z" fill="#FEFEFE"/>
<path transform="translate(1613,215)" d="m0 0h8l11 3 9 6 7 8 4 9 1 4v13l-4 11-6 8-8 6-10 4h-16l-10-4-8-6-6-8-4-11v-13l4-11 6-8 7-6 9-4zm1 27-5 4-1 2v7l4 5 8 1 6-5 1-6-3-6-3-2z" fill="#FEFEFE"/>
<path transform="translate(1326,42)" d="m0 0h9l5 4 4 8 1 5v426l-1 62h-1l-1-24v-463l-4-10-5-5-8 1-5 5-2 6v512l4 8 5 4h6l5-3 3-6 2-13 2 3-1 9-4 8-6 4h-8l-7-6-3-7-1-6v-504l2-8 4-7z" fill="#3AF1DC"/>
<path transform="translate(1326,42)" d="m0 0h9l5 4 4 8 1 5-1 44h-1l-1-43-4-10-5-5-8 1-5 5-2 6v512l4 8 5 4h6l5-3 3-6 2-13 2 3-1 9-4 8-6 4h-8l-7-6-3-7-1-6v-504l2-8 4-7z" fill="#39F5E0"/>
<path transform="translate(289,491)" d="m0 0h7l7 3 5 6 1 4v10l-3 7-6 5-3 1h-11l-6-4-4-6-1-4v-7l3-9 5-4zm-1 7-4 5v12l4 5 5 1 5-2 3-7-1-10-4-4z" fill="#D1DAC5"/>
<path transform="translate(981,501)" d="m0 0h10l6 3v23l-3 7-7 4h-11l-3-2v-4l5-1h7l3-2v-3l-2 1h-8l-5-4-2-10 3-8 4-3zm1 6-3 5 1 7 2 2h5l2-2v-11l-1-1z" fill="#D1DAC5"/>
<path transform="translate(115,87)" d="m0 0h4l18 53 15 43 26 77 15 43 9 27v3h-30l-2-4 6 2h23l-16-47-4-12-14-41-7-20-12-36-4-13-5-12-12-36-8-22z" fill="#39F3DE"/>
<path transform="translate(788,501)" d="m0 0 4 2 3 15 5-15 1-1h6l5 16 3-14 4-3 4 3-2 11-5 11-6 1-4-4-3-8-4 11-6 1-4-4-5-16 2-5z" fill="#D1DAC5"/>
<path transform="translate(905,501)" d="m0 0 4 2 3 15 5-15 1-1h6l4 14v3h2l1-11 2-5 4-2 3 3-2 11-5 11-6 1-4-4-3-8-4 11-6 1-4-4-4-11-1-7z" fill="#D1DAC5"/>
<path transform="translate(1040,489)" d="m0 0 4 1 1 1v12l4-2 9 1 3 4v20l-4 1-3-1-1-18-7 1-1 17h-7l-1-1v-33z" fill="#D1DAC5"/>
<path transform="translate(663,489)" d="m0 0 4 1 1 1 1 12 3-2 9 1 3 4v20h-7l-1-18-7 1-1 17h-7l-1-1v-33z" fill="#D1DAC5"/>
<path transform="translate(830,489)" d="m0 0 4 1 2 3-1 10 5-2h6l5 4 1 3v18h-8l-1-17-5-1-1 1-2 17h-7v-35z" fill="#D1DAC5"/>
<path transform="translate(378,213)" d="m0 0h1v119l-1 1h-27l-1-1v-117l2 2 1 112 11 1h13v-95z" fill="#39F6E1"/>
<path transform="translate(387,501)" d="m0 0h8l6 3 3 4v12l-4 5-4 2h-10l-5-3-3-5v-10l3-5zm2 6-3 2-1 6 2 5 1 1h6l2-2v-10l-2-2z" fill="#D1DAC5"/>
<path transform="translate(699,501)" d="m0 0h8l6 3 3 4v11l-4 6-4 2h-10l-5-3-3-4v-11l3-5zm1 6-3 6 2 7 1 1h6l2-2v-10l-2-2z" fill="#D1DAC5"/>
<path transform="translate(465,501)" d="m0 0h8l6 3 3 5v10l-4 6-5 2h-9l-5-3-3-4-1-8 3-7 4-3zm1 6-3 5 1 7 2 2h6l2-2v-10l-2-2z" fill="#D1DAC5"/>
<path transform="translate(867,501)" d="m0 0h8l5 3 3 3 1 3v8l-3 5-3 3-3 1h-10l-5-3-3-6v-7l3-6 4-3zm1 6-3 3v8l2 3h7l2-3v-8l-3-3z" fill="#D1DAC5"/>
<path transform="translate(584,501)" d="m0 0h8l6 3 3 5v10l-4 6-4 2h-10l-5-3-3-4v-11l4-6zm1 6-3 5 1 7 2 2h6l2-2v-10l-2-2z" fill="#D1DAC5"/>
<path transform="translate(615,236)" d="m0 0 2 1v33l1 59h23l1-92 2-1v96l-3 1h-25l-1-1z" fill="#39F5E0"/>
<path transform="translate(317,501)" d="m0 0 4 1 1 1 1 16 1 1h5l1-2 1-15 2-2 4 1 2 3v11l-1 10-4 1-5-1-2 1h-8l-4-4-1-4v-15z" fill="#D1DAC5"/>
<path transform="translate(951,501)" d="m0 0h8l5 3 2 3v19l-4 1-5-1-2 1h-7l-4-3-1-5 3-6 12-3v-3l-12 1-1-3 3-3zm4 14-4 2v4l3 1 5-3-1-4z" fill="#D1DAC5"/>
<path transform="translate(752,501)" d="m0 0h7l5 3 3 5v5l-2 2h-14l2 4 5 1 8-1 1 4-5 3h-11l-6-4-2-4v-9l3-6zm2 5-3 2v4h7l2-1-1-4z" fill="#D1DAC5"/>
<path transform="translate(523,501)" d="m0 0h7l5 3 3 5-1 6-1 1h-14l2 4 5 1 8-1 1 4-5 3h-11l-6-4-2-4v-9l3-6zm2 5-3 2v4l9-1-1-4z" fill="#D1DAC5"/>
<path transform="translate(1076,501)" d="m0 0h7l6 4 1 2v8l-1 1h-15l2 4 5 1 9-1 1 3-3 3-2 1h-11l-5-3-3-4v-11l4-6zm1 5-3 5 1 1h6l2-1-1-4z" fill="#D1DAC5"/>
<path transform="translate(1170,501)" d="m0 0h8l5 3 2 2v20l-4 1-4-2-3 2h-7l-4-4v-7l4-4 10-2v-3l-12 1 1-5zm5 14-5 2 1 4 3 1 4-3-1-4z" fill="#D1DAC5"/>
<path transform="translate(489,501)" d="m0 0 4 2 4 16h2l3-12 3-5h4l2 2-2 9-6 12-4 2-5-1-5-8-4-13z" fill="#D1DAC5"/>
<path transform="translate(565,489)" d="m0 0 7 1v4l-4 2-1 6h5v5h-5v11l-1 8h-7v-19h-4v-5h4v-7l4-5z" fill="#D1DAC5"/>
<path transform="translate(418,489)" d="m0 0h5l3 4-5 3-1 5 5 1v5l-5 1-1 18h-7l-1-18-3-1-1-3 1-2 3-1 1-7 4-4z" fill="#D1DAC5"/>
<path transform="translate(727,501)" d="m0 0h8l3 2-1 5-9-1 2 3 8 4 2 3-1 6-3 3-3 1h-9l-4-2 2-5 10 1-2-3-8-4-2-6 3-5z" fill="#D1DAC5"/>
<path transform="translate(1226,501)" d="m0 0h8l3 2-1 5-9-1 2 3 8 4 2 3-1 6-3 3-3 1h-9l-4-2 2-5 10 1v-3l-9-3-3-5 2-6z" fill="#D1DAC5"/>
<path transform="translate(263,200)" d="m0 0h1v132l-1 1h-28v-5l2 1v2l25-1v-129z" fill="#39F6E1"/>
<path transform="translate(1021,494)" d="m0 0 4 1 2 3v4h5v5h-5v14h5l1 5-1 1h-9l-4-4v-16h-4v-5h4l1-7z" fill="#D1DAC5"/>
<path transform="translate(644,494)" d="m0 0 4 1 2 3v4h5v5h-5v14h5l1 5-1 1h-9l-4-4v-16h-4v-5h4l1-7z" fill="#D1DAC5"/>
<path transform="translate(1148,494)" d="m0 0 4 1 1 7h6v5h-6l1 13 5 1 1 5-2 1h-8l-4-4-1-5v-10l-3-1v-5l3-1 2-6z" fill="#D1DAC5"/>
<path transform="translate(349,494)" d="m0 0 4 1 2 6 5 1v5l-5 1v13h5l1 5-1 1h-9l-4-4-1-15-3-1v-5h4v-6z" fill="#D1DAC5"/>
<path transform="translate(1209,489)" d="m0 0 4 1 1 1 1 34-4 2-4-1-1-3v-31z" fill="#D1DAC5"/>
<path transform="translate(445,489)" d="m0 0 4 1 1 1 1 34-4 2-4-1-1-5v-29z" fill="#D1DAC5"/>
<path transform="translate(615,87)" d="m0 0h17v1l-9 1-5 3-1 66v67h-1l-1-9z" fill="#39F5E0"/>
<path transform="translate(1113,501)" d="m0 0 4 2h3l3-2h3v7l-7 1-1 17h-8v-22z" fill="#D1DAC5"/>
<path transform="translate(609,501)" d="m0 0 4 1 2 2 5-3 3 1v6l-7 2-1 2-1 14h-7v-23z" fill="#D1DAC5"/>
<path transform="translate(1192,502)" d="m0 0h8v24l-3 1-5-1z" fill="#D1DAC5"/>
<path transform="translate(1096,502)" d="m0 0h7l1 1v23h-8z" fill="#D1DAC5"/>
<path transform="translate(438,151)" d="m0 0h4l18 48 13 35-1 4-8-20-6-16-13-34-5-13v-2h-2z" fill="#39F2DD"/>
<path transform="translate(182,279)" d="m0 0 3 1 17 50v3h-30l-2-4 6 2h23l-16-47z" fill="#39F5E0"/>
<path transform="translate(714,89)" d="m0 0 12 2 16 6 10 6 10 9 7 11 4 11-2 1-5-12-8-11-7-6-14-8-11-4-12-3z" fill="#39F4DF"/>
<path transform="translate(912,149)" d="m0 0 10 3 10 7 9 10 8 17-2 2-8-16-6-8-8-7-8-4-6-2z" fill="#39F3DE"/>
<path transform="translate(343,149)" d="m0 0 10 4 9 7 8 11 5 13-2 2-7-16-5-7v-2l-4-2-10-6-5-2z" fill="#39F4DF"/>
<path transform="translate(438,151)" d="m0 0h4l11 29v2l-3-1-10-26v-2h-2z" fill="#39F5E0"/>
<path transform="translate(1098,489)" d="m0 0 4 1 3 4-4 4-4-1-2-2 1-4z" fill="#D3DBC7"/>
<path transform="translate(1194,489)" d="m0 0 4 1 3 4-4 4-4-1-2-5z" fill="#D1DAC6"/>
<path transform="translate(1040,328)" d="m0 0 3 3h29l2-2v3l-1 1h-32l-2-4z" fill="#39F5E0"/>
<path transform="translate(115,87)" d="m0 0h4l5 14v2l-3-1z" fill="#39F4DF"/>
<path transform="translate(929,328)" d="m0 0h2v3h22v2h-23z" fill="#39F6E1"/>
<path transform="translate(423,395)" d="m0 0 1 3-1 8 5 3-3 1-5-2 1-8z" fill="#39F5E0"/>
<path transform="translate(1126,151)" d="m0 0 4 1 3 13h-2l-3-9v-3h-2z" fill="#39F4DF"/>
</svg>
